<?xml version="1.0" encoding="UTF-8" standalone="no"?>
<!DOCTYPE svg PUBLIC "-//W3C//DTD SVG 1.1//EN" "http://www.w3.org/Graphics/SVG/1.1/DTD/svg11.dtd">
<svg width="100%" height="100%" viewBox="0 0 24 24" version="1.1" xmlns="http://www.w3.org/2000/svg" xmlns:xlink="http://www.w3.org/1999/xlink" xml:space="preserve" xmlns:serif="http://www.serif.com/" style="fill-rule:evenodd;clip-rule:evenodd;stroke-linejoin:round;stroke-miterlimit:2;">
    <g transform="matrix(1.13027,0,0,1.13027,-1.80444,-2.10466)">
        <circle cx="12.213" cy="12.479" r="10.582" style="fill:rgb(51,51,51);"/>
    </g>
    <g transform="matrix(0.0873716,0,0,0.0873716,-195.767,-123.765)">
        <path d="M2395.73,1462.31C2409.47,1462.31 2420.62,1473.46 2420.62,1487.2C2420.62,1500.94 2409.47,1512.09 2395.73,1512.09C2381.99,1512.09 2370.84,1500.94 2370.84,1487.2C2370.84,1473.46 2381.99,1462.31 2395.73,1462.31ZM2336.29,1547.85C2336.29,1547.85 2333.83,1544.27 2336.74,1541.35C2339.65,1538.44 2350.63,1529.25 2357.13,1524.77C2363.63,1520.29 2381.78,1514.46 2393.43,1519.17C2405.09,1523.88 2410.24,1536.2 2405.53,1552.33C2400.83,1568.47 2388.05,1608.36 2388.05,1608.36C2388.05,1608.36 2386.04,1616.2 2390.3,1618.22C2394.55,1620.23 2397.69,1615.75 2400.38,1613.06C2403.07,1610.37 2410.46,1603.2 2410.46,1603.2C2410.46,1603.2 2415.39,1600.06 2417.63,1602.75C2419.88,1605.44 2418.53,1608.36 2415.84,1611.27C2413.15,1614.18 2395.67,1632.11 2388.95,1635.92C2382.23,1639.73 2365.52,1651.88 2346.15,1641.07C2334.5,1634.57 2340.1,1613.96 2343.69,1603.43L2361.61,1550.77C2361.61,1550.77 2366.32,1540.23 2362.51,1537.77C2358.7,1535.3 2355.11,1538.69 2351.75,1540.94C2348.39,1543.18 2343.15,1547.91 2343.15,1547.91C2343.15,1547.91 2340.33,1550.99 2336.29,1547.85Z" style="fill:rgb(254,254,254);"/>
    </g>
</svg>
