<?xml version="1.0" encoding="UTF-8" standalone="no"?>
<!DOCTYPE svg PUBLIC "-//W3C//DTD SVG 1.1//EN" "http://www.w3.org/Graphics/SVG/1.1/DTD/svg11.dtd">
<svg width="100%" height="100%" viewBox="0 0 35 35" version="1.1" xmlns="http://www.w3.org/2000/svg" xmlns:xlink="http://www.w3.org/1999/xlink" xml:space="preserve" xmlns:serif="http://www.serif.com/" style="fill-rule:evenodd;clip-rule:evenodd;stroke-linejoin:round;stroke-miterlimit:2;">
    <g transform="matrix(0.0857365,0,0,0.0857365,-169.9,-118.143)">
        <path d="M2225.47,1510.43C2225.44,1510.42 2225.38,1465.85 2225.46,1465.89L2285.72,1500.69C2299.72,1508.77 2308.34,1523.7 2308.34,1539.87L2308.34,1629.4C2308.34,1645.42 2299.8,1660.22 2285.93,1668.23L2208.42,1712.98C2194.4,1721.08 2177.13,1721.08 2163.11,1712.98L2085.59,1668.23C2071.73,1660.22 2063.18,1645.43 2063.18,1629.41L2063.18,1539.65C2063.18,1523.62 2071.74,1508.81 2085.62,1500.8L2146.02,1465.92C2145.99,1465.87 2145.92,1510.57 2146.01,1510.46L2109.19,1531.72C2104.59,1534.38 2101.75,1539.29 2101.75,1544.61L2101.75,1624.36C2101.75,1629.72 2104.61,1634.68 2109.25,1637.36L2178.32,1677.23C2182.93,1679.89 2188.6,1679.89 2193.21,1677.23L2262.27,1637.36C2266.92,1634.68 2269.78,1629.72 2269.78,1624.36L2269.78,1544.61C2269.78,1539.29 2266.94,1534.38 2262.34,1531.72L2225.47,1510.43ZM2207.94,1456.98L2207.94,1648.31L2185.82,1660.87L2162.82,1648.31L2162.82,1457.94L2185.66,1445.12L2207.94,1456.98Z" style="fill:white;"/>
    </g>
</svg>
