<?xml version="1.0" encoding="UTF-8" standalone="no"?>
<!DOCTYPE svg PUBLIC "-//W3C//DTD SVG 1.1//EN" "http://www.w3.org/Graphics/SVG/1.1/DTD/svg11.dtd">
<svg width="100%" height="100%" viewBox="0 0 11 13" version="1.1" xmlns="http://www.w3.org/2000/svg" xmlns:xlink="http://www.w3.org/1999/xlink" xml:space="preserve" xmlns:serif="http://www.serif.com/" style="fill-rule:evenodd;clip-rule:evenodd;stroke-linejoin:round;stroke-miterlimit:2;">
    <g transform="matrix(1.02704,0,0,1.02704,-1729.34,-931.703)">
        <path d="M1687.78,913.504L1684.32,909.296C1683.94,908.842 1684.01,908.17 1684.46,907.795C1684.91,907.421 1685.59,907.486 1685.96,907.94L1689.16,911.827L1692.37,907.94C1692.74,907.486 1693.41,907.421 1693.87,907.795C1694.32,908.17 1694.39,908.842 1694.01,909.296L1690.55,913.504L1694.01,917.711C1694.39,918.165 1694.32,918.838 1693.87,919.212C1693.41,919.586 1692.74,919.522 1692.37,919.067L1689.16,915.18L1685.96,919.067C1685.59,919.522 1684.91,919.586 1684.46,919.212C1684.01,918.838 1683.94,918.165 1684.32,917.711L1687.78,913.504Z" style="fill:rgb(88,88,88);"/>
    </g>
</svg>
