<?xml version="1.0" encoding="UTF-8" standalone="no"?>
<!DOCTYPE svg PUBLIC "-//W3C//DTD SVG 1.1//EN" "http://www.w3.org/Graphics/SVG/1.1/DTD/svg11.dtd">
<svg width="100%" height="100%" viewBox="0 0 70 43" version="1.1" xmlns="http://www.w3.org/2000/svg" xmlns:xlink="http://www.w3.org/1999/xlink" xml:space="preserve" xmlns:serif="http://www.serif.com/" style="fill-rule:evenodd;clip-rule:evenodd;stroke-linejoin:round;stroke-miterlimit:2;">
    <g transform="matrix(0.0705725,0.0563718,-0.0563718,0.0705725,1.71055,-201.779)">
        <path d="M2078.24,1392.56L2078.24,1697.89C2078.24,1734.38 2063.75,1769.39 2037.94,1795.19C2012.13,1821 1977.13,1835.5 1940.64,1835.5L1897.71,1835.5L1897.71,1392.56L2078.24,1392.56ZM1879.02,1551.7L1879.02,1850.78C1879.02,1888.93 1863.86,1925.52 1836.88,1952.5C1809.9,1979.48 1773.32,1994.64 1735.16,1994.64L1698.48,1994.64L1698.48,1551.7L1879.02,1551.7ZM1679.57,1711.01L1679.57,1997.4L1651.58,1997.4C1611.12,1997.4 1572.32,1981.33 1543.71,1952.72C1515.11,1924.11 1499.03,1885.31 1499.03,1844.85L1499.03,1711.01L1679.57,1711.01Z" style="fill:white;"/>
    </g>
</svg>
