<?xml version="1.0" encoding="UTF-8" standalone="no"?>
<!DOCTYPE svg PUBLIC "-//W3C//DTD SVG 1.1//EN" "http://www.w3.org/Graphics/SVG/1.1/DTD/svg11.dtd">
<svg width="100%" height="100%" viewBox="0 0 10 14" version="1.1" xmlns="http://www.w3.org/2000/svg" xmlns:xlink="http://www.w3.org/1999/xlink" xml:space="preserve" xmlns:serif="http://www.serif.com/" style="fill-rule:evenodd;clip-rule:evenodd;stroke-linejoin:round;stroke-miterlimit:2;">
    <g transform="matrix(1.37234,0,0,1.37234,-2221.52,-1253.29)">
        <path d="M1622.96,914.588C1622.66,914.284 1622.66,913.791 1622.97,913.489C1623.27,913.187 1623.76,913.188 1624.06,913.492C1625.31,914.747 1626.08,916.475 1626.08,918.381C1626.08,920.254 1625.34,921.955 1624.13,923.204C1623.83,923.512 1623.34,923.52 1623.03,923.222C1622.72,922.924 1622.71,922.432 1623.01,922.123C1623.95,921.154 1624.53,919.835 1624.53,918.381C1624.53,916.902 1623.93,915.561 1622.96,914.588ZM1621.08,916.437C1620.77,916.135 1620.77,915.642 1621.08,915.338C1621.38,915.034 1621.87,915.033 1622.17,915.336C1622.96,916.114 1623.44,917.192 1623.44,918.381C1623.44,919.671 1622.87,920.829 1621.97,921.617C1621.65,921.899 1621.16,921.866 1620.87,921.543C1620.59,921.221 1620.62,920.729 1620.95,920.447C1621.52,919.944 1621.89,919.205 1621.89,918.381C1621.89,917.622 1621.58,916.934 1621.08,916.437ZM1619.02,917.953C1618.71,917.657 1618.69,917.165 1618.99,916.854C1619.29,916.544 1619.78,916.531 1620.09,916.827C1620.5,917.217 1620.76,917.77 1620.76,918.381C1620.76,918.915 1620.56,919.403 1620.24,919.779C1619.96,920.104 1619.47,920.141 1619.14,919.861C1618.82,919.582 1618.78,919.091 1619.06,918.766C1619.15,918.662 1619.2,918.528 1619.2,918.381C1619.2,918.213 1619.13,918.061 1619.02,917.953Z" style="fill:white;"/>
    </g>
</svg>
