<?xml version="1.0" encoding="UTF-8" standalone="no"?>
<!DOCTYPE svg PUBLIC "-//W3C//DTD SVG 1.1//EN" "http://www.w3.org/Graphics/SVG/1.1/DTD/svg11.dtd">
<svg width="100%" height="100%" viewBox="0 0 12 17" version="1.1" xmlns="http://www.w3.org/2000/svg" xmlns:xlink="http://www.w3.org/1999/xlink" xml:space="preserve" xmlns:serif="http://www.serif.com/" style="fill-rule:evenodd;clip-rule:evenodd;stroke-linejoin:round;stroke-miterlimit:2;">
    <g transform="matrix(0.782281,0,0,0.782281,-1275.27,-705.261)">
        <path d="M1641.01,912.195C1640.42,912.195 1639.94,911.717 1639.94,911.129C1639.94,910.54 1640.42,910.063 1641.01,910.063L1644.42,910.063C1645.01,910.063 1645.49,910.54 1645.49,911.129L1645.49,922.008C1645.49,922.597 1645.01,923.075 1644.42,923.075L1631.31,923.075C1630.72,923.075 1630.24,922.597 1630.24,922.008L1630.24,911.129C1630.24,910.54 1630.72,910.063 1631.31,910.063L1634.91,910.063C1635.5,910.063 1635.98,910.54 1635.98,911.129C1635.98,911.717 1635.5,912.195 1634.91,912.195L1632.38,912.195L1632.38,920.942L1643.36,920.942L1643.36,912.195L1641.01,912.195ZM1636.88,905.386L1634.62,907.648C1634.21,908.064 1633.53,908.064 1633.11,907.648C1632.7,907.232 1632.7,906.556 1633.11,906.14L1637.19,902.058C1637.61,901.642 1638.29,901.642 1638.7,902.058L1642.79,906.14C1643.2,906.556 1643.2,907.232 1642.79,907.648C1642.37,908.064 1641.69,908.064 1641.28,907.648L1639.02,905.386L1639.02,911.704C1639.02,912.293 1638.54,912.77 1637.95,912.77C1637.36,912.77 1636.88,912.293 1636.88,911.704L1636.88,905.386Z" style="fill:rgb(88,88,88);"/>
    </g>
</svg>
