<?xml version="1.0" encoding="UTF-8" standalone="no"?>
<!DOCTYPE svg PUBLIC "-//W3C//DTD SVG 1.1//EN" "http://www.w3.org/Graphics/SVG/1.1/DTD/svg11.dtd">
<svg width="100%" height="100%" viewBox="0 0 18 18" version="1.1" xmlns="http://www.w3.org/2000/svg" xmlns:xlink="http://www.w3.org/1999/xlink" xml:space="preserve" xmlns:serif="http://www.serif.com/" style="fill-rule:evenodd;clip-rule:evenodd;stroke-linejoin:round;stroke-miterlimit:2;">
    <g transform="matrix(-6.65897e-17,0.362497,-0.362497,-6.65897e-17,319.036,-645.889)">
        <path d="M1805.88,873.41L1785.29,879.929C1784.27,880.251 1783.16,879.933 1782.46,879.122C1781.77,878.31 1781.63,877.163 1782.11,876.208L1804.23,831.972C1804.67,831.072 1805.6,830.503 1806.6,830.503C1807.61,830.503 1808.53,831.072 1808.98,831.972L1831.1,876.208C1831.57,877.163 1831.43,878.31 1830.74,879.122C1830.05,879.933 1828.94,880.251 1827.92,879.929L1807.32,873.41C1807.09,873.474 1806.85,873.509 1806.6,873.509C1806.35,873.509 1806.11,873.474 1805.88,873.41ZM1809.26,868.451L1823.54,872.97L1809.26,844.41L1809.26,868.451ZM1803.94,844.417L1789.67,872.969L1803.94,868.451L1803.94,844.417Z" style="fill:white;"/>
    </g>
</svg>
