<?xml version="1.0" encoding="UTF-8" standalone="no"?>
<!DOCTYPE svg PUBLIC "-//W3C//DTD SVG 1.1//EN" "http://www.w3.org/Graphics/SVG/1.1/DTD/svg11.dtd">
<svg width="100%" height="100%" viewBox="0 0 35 35" version="1.1" xmlns="http://www.w3.org/2000/svg" xmlns:xlink="http://www.w3.org/1999/xlink" xml:space="preserve" xmlns:serif="http://www.serif.com/" style="fill-rule:evenodd;clip-rule:evenodd;stroke-linejoin:round;stroke-miterlimit:2;">
    <g transform="matrix(0.180909,0,0,0.183429,-160.46,-47.3718)">
        <path d="M966.442,277.846C970.024,271.709 976.595,267.936 983.701,267.936C990.806,267.936 997.377,271.709 1000.96,277.846L1077.71,409.33C1081.32,415.51 1081.34,423.148 1077.78,429.354C1074.22,435.561 1067.61,439.387 1060.45,439.387L906.95,439.387C899.794,439.387 893.184,435.561 889.62,429.354C886.057,423.148 886.084,415.51 889.692,409.33L966.442,277.846ZM983.705,393.556C977.408,393.556 972.297,398.668 972.297,404.965C972.297,411.261 977.408,416.373 983.705,416.373C990.001,416.373 995.113,411.261 995.113,404.965C995.113,398.668 990.001,393.556 983.705,393.556ZM971.934,327.033L976.798,379.989C977.099,383.257 979.84,385.757 983.121,385.757L983.674,385.757C987.265,385.757 990.266,383.023 990.598,379.447L995.467,327.04C995.65,325.071 994.995,323.116 993.663,321.654C992.331,320.193 990.445,319.36 988.467,319.36L978.934,319.36C976.958,319.36 975.073,320.192 973.741,321.652C972.409,323.112 971.753,325.065 971.934,327.033Z" style="fill:white;"/>
    </g>
</svg>
