<?xml version="1.0" encoding="UTF-8" standalone="no"?>
<!DOCTYPE svg PUBLIC "-//W3C//DTD SVG 1.1//EN" "http://www.w3.org/Graphics/SVG/1.1/DTD/svg11.dtd">
<svg width="100%" height="100%" viewBox="0 0 292 50" version="1.1" xmlns="http://www.w3.org/2000/svg" xmlns:xlink="http://www.w3.org/1999/xlink" xml:space="preserve" xmlns:serif="http://www.serif.com/" style="fill-rule:evenodd;clip-rule:evenodd;stroke-linejoin:round;stroke-miterlimit:2;">
    <g transform="matrix(2.715,0,0,2.715,-2841.68,-1043.42)">
        <g transform="matrix(12,0,0,12,1082.16,397.664)">
            <path d="M0.077,-0L0.077,-0.575L0.348,-0.575C0.414,-0.575 0.471,-0.563 0.521,-0.54C0.57,-0.517 0.608,-0.484 0.635,-0.441C0.662,-0.397 0.675,-0.346 0.675,-0.287C0.675,-0.228 0.662,-0.178 0.635,-0.135C0.608,-0.092 0.57,-0.058 0.521,-0.035C0.471,-0.012 0.414,-0 0.348,-0L0.077,-0ZM0.235,-0.124L0.343,-0.124C0.378,-0.124 0.409,-0.13 0.435,-0.143C0.46,-0.156 0.48,-0.174 0.494,-0.199C0.508,-0.223 0.515,-0.252 0.515,-0.287C0.515,-0.322 0.508,-0.352 0.494,-0.377C0.48,-0.401 0.46,-0.419 0.435,-0.432C0.409,-0.445 0.378,-0.451 0.343,-0.451L0.235,-0.451L0.235,-0.124Z" style="fill-rule:nonzero;"/>
        </g>
        <g transform="matrix(12,0,0,12,1082.04,397.664)">
        </g>
        <g transform="matrix(12,0,0,12,1090.56,397.664)">
            <path d="M-0.009,-0L0.249,-0.575L0.405,-0.575L0.664,-0L0.508,-0L0.301,-0.499L0.354,-0.499L0.144,-0L-0.009,-0ZM0.132,-0.114L0.173,-0.228L0.457,-0.228L0.498,-0.114L0.132,-0.114Z" style="fill-rule:nonzero;"/>
        </g>
        <g transform="matrix(12,0,0,12,1090.14,397.664)">
        </g>
        <g transform="matrix(12,0,0,12,1098,397.664)">
            <path d="M0.185,-0L0.185,-0.452L0.004,-0.452L0.004,-0.575L0.524,-0.575L0.524,-0.452L0.343,-0.452L0.343,-0L0.185,-0Z" style="fill-rule:nonzero;"/>
        </g>
        <g transform="matrix(12,0,0,12,1097.58,397.664)">
        </g>
        <g transform="matrix(12,0,0,12,1103.91,397.664)">
            <path d="M-0.009,-0L0.249,-0.575L0.405,-0.575L0.664,-0L0.508,-0L0.301,-0.499L0.354,-0.499L0.144,-0L-0.009,-0ZM0.132,-0.114L0.173,-0.228L0.457,-0.228L0.498,-0.114L0.132,-0.114Z" style="fill-rule:nonzero;"/>
        </g>
        <g transform="matrix(12,0,0,12,1103.46,397.664)">
        </g>
        <g transform="matrix(12,0,0,12,1111.32,397.664)">
            <path d="M0.212,-0L0.021,-0.575L0.184,-0.575L0.345,-0.072L0.262,-0.072L0.431,-0.575L0.577,-0.575L0.737,-0.072L0.659,-0.072L0.825,-0.575L0.977,-0.575L0.787,-0L0.618,-0L0.479,-0.432L0.523,-0.432L0.381,-0L0.212,-0Z" style="fill-rule:nonzero;"/>
        </g>
        <g transform="matrix(12,0,0,12,1111.04,397.664)">
        </g>
        <g transform="matrix(12,0,0,12,1123.03,397.664)">
            <path d="M0.358,0.011C0.296,0.011 0.241,-0.002 0.192,-0.028C0.143,-0.053 0.105,-0.089 0.077,-0.134C0.049,-0.179 0.035,-0.231 0.035,-0.288C0.035,-0.345 0.049,-0.396 0.077,-0.441C0.105,-0.486 0.143,-0.521 0.192,-0.547C0.241,-0.573 0.296,-0.586 0.358,-0.586C0.42,-0.586 0.475,-0.573 0.524,-0.547C0.573,-0.521 0.611,-0.486 0.639,-0.441C0.667,-0.396 0.681,-0.345 0.681,-0.288C0.681,-0.231 0.667,-0.179 0.639,-0.134C0.611,-0.089 0.573,-0.053 0.524,-0.028C0.475,-0.002 0.42,0.011 0.358,0.011ZM0.358,-0.118C0.39,-0.118 0.418,-0.125 0.443,-0.14C0.467,-0.154 0.486,-0.174 0.5,-0.2C0.514,-0.226 0.521,-0.255 0.521,-0.287C0.521,-0.32 0.514,-0.35 0.5,-0.375C0.486,-0.4 0.467,-0.42 0.443,-0.435C0.418,-0.45 0.39,-0.457 0.358,-0.457C0.327,-0.457 0.299,-0.45 0.274,-0.435C0.249,-0.42 0.23,-0.4 0.216,-0.375C0.201,-0.35 0.194,-0.321 0.194,-0.288C0.194,-0.255 0.201,-0.226 0.216,-0.2C0.23,-0.174 0.249,-0.154 0.274,-0.14C0.299,-0.125 0.327,-0.118 0.358,-0.118Z" style="fill-rule:nonzero;"/>
        </g>
        <g transform="matrix(12,0,0,12,1122.75,397.664)">
        </g>
        <g transform="matrix(12,0,0,12,1131.35,397.664)">
            <path d="M0.246,-0L-0.004,-0.575L0.164,-0.575L0.376,-0.07L0.279,-0.07L0.495,-0.575L0.652,-0.575L0.402,-0L0.246,-0Z" style="fill-rule:nonzero;"/>
        </g>
        <g transform="matrix(12,0,0,12,1131.35,397.664)">
        </g>
        <g transform="matrix(12,0,0,12,1139.12,397.664)">
            <path d="M0.077,-0L0.077,-0.575L0.529,-0.575L0.529,-0.454L0.233,-0.454L0.233,-0.121L0.54,-0.121L0.54,-0L0.077,-0ZM0.217,-0.234L0.217,-0.349L0.495,-0.349L0.495,-0.234L0.217,-0.234Z" style="fill-rule:nonzero;"/>
        </g>
        <g transform="matrix(12,0,0,12,1139.12,397.664)">
        </g>
        <g transform="matrix(12,0,0,12,1146.06,397.664)">
            <path d="M0.077,-0L0.077,-0.575L0.207,-0.575L0.527,-0.186L0.474,-0.186L0.474,-0.575L0.627,-0.575L0.627,-0L0.497,-0L0.172,-0.389L0.23,-0.389L0.23,-0L0.077,-0Z" style="fill-rule:nonzero;"/>
        </g>
        <g transform="matrix(12,0,0,12,1146.06,397.664)">
        </g>
        <g transform="matrix(12,0,0,12,1154.51,397.664)">
        </g>
    </g>
    <g transform="matrix(0.0875487,0.0699321,-0.0699321,0.0875487,2.51384,-251.627)">
        <path d="M2078.24,1392.56L2078.24,1697.89C2078.24,1734.38 2063.75,1769.39 2037.94,1795.19C2012.13,1821 1977.13,1835.5 1940.64,1835.5L1897.71,1835.5L1897.71,1392.56L2078.24,1392.56ZM1879.02,1551.7L1879.02,1850.78C1879.02,1888.93 1863.86,1925.52 1836.88,1952.5C1809.9,1979.48 1773.32,1994.64 1735.16,1994.64L1698.48,1994.64L1698.48,1551.7L1879.02,1551.7ZM1679.57,1711.01L1679.57,1997.4L1651.58,1997.4C1611.12,1997.4 1572.32,1981.33 1543.71,1952.72C1515.11,1924.11 1499.03,1885.31 1499.03,1844.85L1499.03,1711.01L1679.57,1711.01Z"/>
    </g>
</svg>
